<?xml version="1.0" standalone="no"?>
<!DOCTYPE svg PUBLIC "-//W3C//DTD SVG 20010904//EN"
 "http://www.w3.org/TR/2001/REC-SVG-20010904/DTD/svg10.dtd">
<svg version="1.0" xmlns="http://www.w3.org/2000/svg"
 width="436.000000pt" height="436.000000pt" viewBox="0 0 436.000000 436.000000"
 preserveAspectRatio="xMidYMid meet">
<metadata>
Created by potrace 1.11, written by Peter Selinger 2001-2013
</metadata>
<g transform="translate(0.000000,436.000000) scale(0.100000,-0.100000)"
fill="#000000" stroke="none">
<path d="M2577 4114 c-1 -1 -47 -4 -102 -7 -94 -6 -218 -20 -275 -32 -14 -2
-50 -10 -80 -16 -502 -101 -1006 -404 -1348 -811 -66 -78 -192 -252 -192 -264
0 -3 -9 -18 -19 -32 -20 -28 -94 -174 -130 -254 -18 -40 -25 -47 -53 -50 l-33
-3 0 -67 c-1 -38 2 -68 5 -68 4 0 -5 -40 -19 -90 -17 -63 -30 -90 -40 -91 -9
0 -45 -1 -81 -2 l-64 -2 -1 -67 -1 -68 234 0 234 0 -6 -53 c-11 -86 -14 -127
-18 -213 l-3 -81 -45 -1 c-86 0 -80 5 -80 -71 l0 -70 60 1 c33 1 63 -2 67 -6
4 -3 8 -26 10 -49 16 -216 113 -496 240 -690 110 -168 278 -336 447 -445 178
-116 470 -224 666 -247 30 -3 62 -8 70 -10 65 -16 620 -24 765 -10 475 45 993
265 1400 595 50 40 92 74 94 76 2 2 -202 277 -219 294 -10 10 -180 240 -180
243 0 3 18 4 40 4 22 0 42 2 44 4 4 4 9 78 7 115 -1 18 -7 20 -68 19 l-68 -1
-1 -74 c-1 -74 -2 -75 -39 -105 l-37 -30 -18 25 c-48 65 -40 64 -97 18 l-53
-41 -22 29 c-13 15 -27 34 -33 41 -8 10 -20 5 -55 -23 -25 -20 -81 -62 -125
-93 -224 -158 -531 -286 -711 -296 -195 -11 -495 157 -643 360 -70 96 -142
264 -157 365 -3 19 -8 44 -11 55 -8 25 -13 264 -6 282 4 10 51 13 214 13 l209
0 0 70 0 70 -369 0 -369 0 10 36 c5 20 11 44 14 53 8 37 43 131 72 194 91 199
250 400 424 533 53 42 212 144 222 144 3 0 33 13 68 29 96 44 141 59 238 81
114 25 120 25 226 -6 225 -65 429 -200 581 -387 l56 -68 45 47 46 46 40 -47
41 -47 29 37 c49 60 60 62 99 10 l34 -44 74 73 c41 40 177 177 303 304 l229
231 -41 49 c-120 143 -325 295 -532 395 -209 100 -427 160 -670 184 -52 5
-537 11 -543 7z"/>
<path d="M1731 2710 c-9 -6 -8 -116 1 -125 9 -10 68 -13 103 -5 29 6 30 7 31
68 0 34 -2 63 -5 63 -19 4 -123 4 -130 -1z"/>
<path d="M1899 2715 c-1 0 -2 -28 -4 -63 -3 -73 -1 -75 84 -75 l56 0 0 62 c0
34 -2 66 -5 69 -4 5 -119 12 -131 7z"/>
<path d="M2073 2711 c-13 -9 -10 -120 4 -129 9 -6 770 -8 880 -3 21 1 22 5 20
69 l-2 67 -446 1 c-246 1 -451 -1 -456 -5z"/>
<path d="M9 2627 c-3 -68 1 -111 9 -116 6 -3 37 -4 71 -3 l61 4 -1 68 -1 68
-69 0 c-64 0 -69 -1 -70 -21z"/>
<path d="M183 2638 c-4 -7 -8 -39 -9 -70 l-1 -56 53 -4 c85 -5 89 -2 88 62 -1
30 -2 61 -3 68 -1 8 -20 12 -60 12 -37 0 -63 -5 -68 -12z"/>
<path d="M2280 2190 l0 -70 70 0 70 0 0 70 0 70 -70 0 -70 0 0 -70z"/>
<path d="M290 1773 l0 -72 70 0 70 0 0 69 c0 39 -4 70 -10 71 -5 1 -37 2 -70
3 l-60 1 0 -72z"/>
<path d="M4000 1528 c0 -38 4 -68 10 -69 6 -1 26 -1 45 -1 93 0 86 -6 83 69
l-3 68 -67 0 -68 1 0 -68z"/>
<path d="M4170 1528 c0 -37 3 -68 8 -69 10 -1 82 -1 110 0 21 1 22 5 22 69 l0
68 -70 0 -70 0 0 -68z"/>
</g>
</svg>
